<?xml version="1.0" encoding="UTF-8"?>
<svg id="Layer_1" data-name="Layer 1" xmlns="http://www.w3.org/2000/svg" xmlns:xlink="http://www.w3.org/1999/xlink" viewBox="0 0 300 70.62">
  <defs>
    <style>
      .cls-1 {
        fill: url(#linear-gradient);
      }

      .cls-2 {
        fill: #00212e;
      }

      .cls-3 {
        fill: url(#linear-gradient-2);
      }
    </style>
    <linearGradient id="linear-gradient" x1="14.62" y1="35.39" x2="86.56" y2="35.39" gradientUnits="userSpaceOnUse">
      <stop offset="0" stop-color="#8dc541"/>
      <stop offset="1" stop-color="#189d49"/>
    </linearGradient>
    <linearGradient id="linear-gradient-2" x1="3.35" y1="19.7" x2="41.21" y2="19.7" xlink:href="#linear-gradient"/>
  </defs>
  <g>
    <path class="cls-2" d="M231.47,9.48h-.43v-.41h1.97c.78,0,1.33,.52,1.33,1.32,0,.72-.44,1.14-.9,1.24h0s.09,.07,.16,.2l.67,1.32c.07,.14,.17,.15,.33,.15h.09v.41h-.2c-.38,0-.49-.05-.64-.35l-.67-1.33c-.13-.24-.21-.28-.47-.28h-.78v1.96h-.46v-4.24Zm1.49,1.87c.56,0,.9-.36,.9-.94s-.34-.93-.89-.93h-1.04v1.87h1.03Z"/>
    <path class="cls-2" d="M232.81,16.1c-2.61,0-4.73-2.12-4.73-4.73s2.12-4.73,4.73-4.73,4.73,2.12,4.73,4.73-2.12,4.73-4.73,4.73Zm0-9.11c-2.41,0-4.38,1.96-4.38,4.38s1.96,4.38,4.38,4.38,4.38-1.96,4.38-4.38-1.96-4.38-4.38-4.38Z"/>
  </g>
  <g>
    <path class="cls-1" d="M86.56,22.96V8.31h-2c-4.88,0-9.75,.03-14.63-.01-6.82-.05-12.43,2.54-16.77,7.76-12.86,15.47-25.7,30.95-38.54,46.44h24.62c9.1-11.4,18.56-22.5,27.84-33.75,2.9-3.51,6.54-5.32,11.11-5.27,2.3,.03,4.59,0,6.89,.01h1.47v-.52Z"/>
    <path class="cls-3" d="M41.21,17.76l-11.1,13.35c-8.54-6.59-17.02-6.69-25.54-1.04L3.35,10.82c8.43-3.25,17.01-3.38,25.77-.34,4.51,1.57,8.57,3.9,12.09,7.28"/>
  </g>
  <polygon class="cls-2" points="136.55 8.66 122.75 31.02 108.39 8.66 97.49 8.66 117.75 38.36 117.75 62.49 126.63 62.49 126.63 38.52 146.16 8.66 136.55 8.66"/>
  <path class="cls-2" d="M188.85,21.09c-6.21,0-12.51,1.45-15.5,3.39v7.91c3.15-2.58,8.39-4.12,12.99-4.12,6.3,0,9.93,2.5,9.93,8.23v3.79c-2.82-1.61-6.86-2.83-12.11-2.83-9.2,0-14.69,4.28-14.69,13.24,0,10.17,8.23,12.99,16.54,12.99,10.65,0,18.64-1.86,18.64-9.77l.08-19.37c0-10.25-8.23-13.48-15.9-13.48m7.43,32.36c0,3.07-2.99,3.63-9.28,3.63-4.44,0-9.12-1.94-9.12-6.78,0-4.28,3.23-6.46,9.36-6.46,3.39,0,6.62,.73,9.04,1.78v7.83Z"/>
  <rect class="cls-2" x="211.85" y="6.64" width="8.39" height="55.85"/>
  <path class="cls-2" d="M167.83,22.06c-4.25-2.7-23.95,.39-23.95,.39v5.7l.09-.02V62.49h8.47V29.4c4.36-.73,10.65-1.21,15.42-.48v-6.78s-.08-.04-.12-.05l.09-.02Z"/>
  <g>
    <path class="cls-2" d="M229.65,39.93c0-4.08,3.01-6.87,6.83-6.87,2.35,0,3.98,1.14,5.04,2.63l-1.39,.78c-.76-1.12-2.13-1.93-3.65-1.93-2.91,0-5.12,2.23-5.12,5.39s2.21,5.39,5.12,5.39c1.51,0,2.89-.8,3.65-1.93l1.41,.78c-1.12,1.51-2.71,2.63-5.06,2.63-3.82,0-6.83-2.79-6.83-6.87Z"/>
    <path class="cls-2" d="M245.46,39.93c0-3.92,2.65-6.87,6.59-6.87s6.59,2.95,6.59,6.87-2.67,6.87-6.59,6.87-6.59-2.95-6.59-6.87Zm11.47,0c0-3.11-1.91-5.39-4.88-5.39s-4.88,2.29-4.88,5.39,1.89,5.39,4.88,5.39,4.88-2.31,4.88-5.39Z"/>
    <path class="cls-2" d="M273.01,46.56l-7.75-10.59v10.59h-1.65v-13.28h1.69l7.65,10.37v-10.37h1.65v13.28h-1.59Z"/>
  </g>
  <g>
    <path class="cls-2" d="M229.65,57.12c0-4.08,3.01-6.87,6.83-6.87,2.35,0,3.98,1.14,5.04,2.63l-1.39,.78c-.76-1.12-2.13-1.93-3.65-1.93-2.91,0-5.12,2.23-5.12,5.39s2.21,5.39,5.12,5.39c1.51,0,2.89-.8,3.65-1.93l1.41,.78c-1.12,1.51-2.71,2.63-5.06,2.63-3.82,0-6.83-2.79-6.83-6.87Z"/>
    <path class="cls-2" d="M246,63.75v-13.28h8.7v1.47h-7.05v4.28h6.91v1.47h-6.91v4.58h7.05v1.47h-8.7Z"/>
    <path class="cls-2" d="M259.71,63.75v-13.28h5.33c2.67,0,4.16,1.83,4.16,4s-1.53,4-4.16,4h-3.68v5.28h-1.65Zm7.78-9.28c0-1.49-1.08-2.53-2.65-2.53h-3.48v5.06h3.48c1.57,0,2.65-1.03,2.65-2.53Z"/>
    <path class="cls-2" d="M277.06,63.75v-11.81h-4.2v-1.47h10.07v1.47h-4.22v11.81h-1.65Z"/>
    <path class="cls-2" d="M286.65,61.88l.97-1.25c.88,.98,2.31,1.89,4.18,1.89,2.37,0,3.13-1.27,3.13-2.29,0-3.42-7.87-1.53-7.87-6.27,0-2.19,1.95-3.68,4.56-3.68,2.03,0,3.6,.68,4.72,1.85l-.99,1.21c-.99-1.09-2.39-1.59-3.84-1.59-1.59,0-2.73,.86-2.73,2.11,0,2.99,7.87,1.27,7.87,6.23,0,1.93-1.32,3.9-4.9,3.9-2.31,0-4-.87-5.1-2.11Z"/>
  </g>
</svg>