<?xml version="1.0" encoding="utf-8"?>
<!-- Generator: Adobe Illustrator 27.0.0, SVG Export Plug-In . SVG Version: 6.00 Build 0)  -->
<svg version="1.1" id="Layer_1" xmlns="http://www.w3.org/2000/svg" xmlns:xlink="http://www.w3.org/1999/xlink" x="0px" y="0px"
	 viewBox="0 0 300 200" style="enable-background:new 0 0 300 200;" xml:space="preserve">
<style type="text/css">
	.st0{fill:url(#SVGID_1_);}
	.st1{fill:#3F59A7;}
	.st2{fill:#94CE98;}
	.st3{fill:#26275F;}
	.st4{fill:#FFFFFF;}
</style>
<g>
	<linearGradient id="SVGID_1_" gradientUnits="userSpaceOnUse" x1="143.3382" y1="81.5944" x2="118.9316" y2="126.9209">
		<stop  offset="0" style="stop-color:#FFFFFF"/>
		<stop  offset="0.1818" style="stop-color:#F2F9F2"/>
		<stop  offset="0.5198" style="stop-color:#CFE9D1"/>
		<stop  offset="0.9738" style="stop-color:#97CF9B"/>
		<stop  offset="0.9987" style="stop-color:#94CE98"/>
	</linearGradient>
	<path class="st0" d="M157.5,5.3c-28.7,9.3-40.2,42.1-24.4,67.6c9.2,13.4-1.8,27.4-9.4,38.6c-1.6,2.3-3.1,4.6-5.3,6.3
		c-6.9,5.4-16.6,2.9-24.7,4.9c-0.5,0.1-1,0.2-1.4,0.4c-0.1,0-0.2,0.1-0.3,0.1c-0.5,0.2-0.9,0.3-1.4,0.5c-5.2-1.9-11.4-9-10.5-13.6
		c0.4-2.4,0-4.4-1.7-6c-1.7-1.6-4.2-1.9-6.2-0.9c-1.9,0.9-3.2,3.3-3.1,5.3c0.1,2.6,1.5,4.8,3.8,5.4c2.2,0.6,4.9,0.8,6.2,3
		c0.7,1.3,4.8,6.6,5.5,10.5c-0.1,0-0.1,0.1-0.2,0.1c-0.4,0.3-0.8,0.7-1.1,1.1c0,0-0.1,0.1-0.1,0.1c-0.1,0.1-0.1,0.1-0.2,0.2
		c-0.4,0.4-0.7,0.7-1.1,1.2c-1.9,2.2-3.5,4.8-4.7,7.4c-1.3,2.9-2.2,5.9-2.7,9c0.6,0.4,1.1,0.9,1.6,1.4c2.1,2,3.9,4.3,5.2,7
		c1.3,2.7,2.1,5.7,2.3,9c0.3,4.3-0.1,8.5-1.4,12.5c2.1,2.5,4.7,4.7,7.6,6.5c10.2,6.3,23.1,7.1,33.7,1.3c3.3-1.8,6.3-4.2,8.7-6.9
		c0,0,0,0,0,0c1.8-2,3.4-4.2,4.6-6.6c1.1-2,2-4.2,2.6-6.3c0,0,0,0,0,0c1.8-6,1.8-12.5-0.4-18.7c-0.1-0.2-0.2-0.4-0.2-0.6
		c-0.2-0.7-0.5-1.3-0.7-2c-0.2-0.7-0.5-1.3-0.7-2c-1-2.8-2-5.6-2.4-8.5c-0.7-5.5,0.5-11.1,2.7-16.2c2-4.8,4.9-10.5,8.6-15
		c1.4-1.7,3-3.3,4.7-4.5c0.8-0.6,1.6-1.1,2.5-1.5c3.6-1.8,7.7-2.2,11.7-2.5c7.7-0.5,15.1-1.3,21.8-3.7c5.9-2,11.5-5.2,16.4-10.3
		c13.9-14.2,14.6-36.5,5.2-53.3C198.5,7.3,177.5-1.3,157.5,5.3z"/>
	<g>
		<g>
			<g>
				<path class="st1" d="M83.2,128.7c-0.1,0.3,0,0.6,0,0.6c0-0.1-0.1-0.2-0.1-0.4C83.1,128.8,83.1,128.8,83.2,128.7z"/>
			</g>
		</g>
		<g>
			<g>
				<g>
					<g>
						<g>
							<path class="st2" d="M168.7,148.4V97.8c-1,0.1-2,0.2-3,0.2c-3.4,0.2-6.9,0.5-9.7,1.9c-3.3,1.6-6.4,5.1-9.5,10.6v63.7
								l38.3-6.3v-22.2L168.7,148.4z"/>
						</g>
						<g>
							<path class="st2" d="M216.9,86l-9.7,39.5l-9.5-35.5c-2.7,1.6-5.6,2.9-8.8,4c-4.8,1.6-9.8,2.6-14.6,3.2l19.4,68.5l27-4.5
								L241.2,82L216.9,86z"/>
						</g>
						<g>
							<path class="st2" d="M279.2,97.7V75.2l-31.9,5.8l-20.2,80l51.7-10.4l0.3-1.4v-20.5l-22.2,5.4l1.6-7l20.5-4.8v-18.3l-16.1,3.8
								l1.6-7.1L279.2,97.7z"/>
						</g>
					</g>
				</g>
				<g>
					<g>
						<path class="st1" d="M78.9,164.1c0.2,2.4,0.1,4.6-0.2,6.8c-0.1,0.5-0.2,1-0.3,1.5c-0.2,0.9-0.4,1.7-0.7,2.5
							c0,0.1,0,0.1-0.1,0.2c-4.9-7.2-7.2-16.2-6.5-25.2c0.7,0.5,1.3,1,1.9,1.5c0,0,0.1,0.1,0.1,0.1l1,1c1.2,1.3,2.2,2.8,3,4.4
							C78.1,159.1,78.7,161.5,78.9,164.1z"/>
					</g>
				</g>
				<g>
					<circle class="st3" cx="170.3" cy="48.2" r="23.6"/>
				</g>
				<g>
					<circle class="st3" cx="106.8" cy="153.5" r="13.6"/>
				</g>
			</g>
			<g>
				<g>
					<path class="st1" d="M78.6,171c-0.1,0.5-0.2,1-0.3,1.5c-0.2,0.9-0.4,1.7-0.7,2.5c0,0.1,0,0.1-0.1,0.2c-0.3,0.8-0.6,1.6-0.9,2.4
						c-1,2.4-2.3,4.7-3.8,6.8c-2.1,2.8-4.7,5.3-7.7,7.4c-3.1,2.1-6.4,3.8-10.1,5.1c-0.5,0.2-1.2,0.4-2.3,0.7c-1,0.3-2.1,0.5-3.2,0.8
						c-2.2,0.6-4.3,1-6.3,1.3c-2,0.3-3.9,0.5-5.6,0.5c-2,0-4-0.1-6.1-0.3c-2.1-0.2-4.8-0.5-8.1-1l3.8-24.7c1.1,0.1,2.2,0.2,3.3,0.4
						c1.1,0.2,2.2,0.3,3.3,0.5l5.2,0.7c1.7,0.3,3.4,0.5,5,0.7c1.7,0.2,3.4,0.1,5.3-0.3c1.2-0.3,2.1-0.8,2.9-1.5
						c0.8-0.7,1.2-1.6,1.3-2.9c-0.1-0.9-0.3-1.6-0.9-2.2c-0.5-0.6-1.2-1-2-1.3c-0.8-0.3-1.6-0.5-2.5-0.7c-0.9-0.1-1.7-0.2-2.5-0.3
						c-3.4,0-6.6-0.7-9.5-1.9c-2.9-1.2-5.5-2.8-7.7-4.8c-2.2-2-4-4.3-5.3-6.8c-1.3-2.6-2.1-5.3-2.3-8.1c-0.1-2.3,0.1-4.7,0.6-7
						c0.5-2.3,1.4-4.6,2.7-6.8c1.3-2.2,3-4.2,5-6.1c2-1.9,4.5-3.5,7.4-4.9c3.2-1.6,6.3-2.7,9.2-3.4c3.8-1,7.6-1.7,11.4-2.1
						c3.5-0.4,7-0.3,10.6,0.1c0.4,0,0.7,0.1,1.1,0.1c0,0.3,0,0.5,0,0.8c0,0.9,0,1.6,0,2c0,0.6,0.1,1.5,0.2,2.7
						c0.1,1.2,0.1,3,0.2,5.5c0.1,2.5,0.1,6.2,0.1,11.2c-2.4-0.4-5.1-0.7-8.2-0.8c-3.1-0.1-5.9-0.1-8.4,0.1c-1.5,0.2-2.8,0.5-4.2,1
						c-1.3,0.5-2.5,1.3-3.4,2.3c-0.4,0.5-0.6,1-0.6,1.4c0,0.2,0,0.3,0,0.4c0,0.3,0.2,0.5,0.4,0.8c0.6,0.7,1.3,1.3,2.1,1.6l12.6,1.3
						c2.6,0.2,5.1,0.8,7.3,1.8c0.7,0.3,1.4,0.7,2.1,1l2,1.2c0.7,0.5,1.3,1,1.9,1.5c0,0,0.1,0.1,0.1,0.1l1,1c1.2,1.3,2.2,2.8,3,4.4
						c1,2.1,1.6,4.5,1.8,7.1C79.1,166.5,79,168.8,78.6,171z"/>
				</g>
				<g>
					<path class="st1" d="M44.6,141.7l-0.3,0.2l0.3,0.2C44.6,142,44.6,141.9,44.6,141.7z M44.6,141.7l-0.3,0.2l0.3,0.2
						C44.6,142,44.6,141.9,44.6,141.7z"/>
				</g>
			</g>
		</g>
		<g>
			<path class="st2" d="M78.9,164.1c-0.2-2.6-0.7-5-1.8-7.1c-0.8-1.6-1.8-3.1-3-4.4l-1-1c0,0-0.1-0.1-0.1-0.1
				c-0.6-0.5-1.2-1.1-1.9-1.5l-2-1.2c-0.7-0.4-1.4-0.7-2.1-1c-2.2-1-4.7-1.6-7.3-1.8l-12.6-1.3c-0.8-0.3-1.5-0.9-2.1-1.6
				c-0.2-0.2-0.3-0.5-0.4-0.8c0-0.1,0-0.3,0-0.4c0-0.4,0.2-0.9,0.6-1.4c1-1,2.1-1.8,3.4-2.3c1.3-0.5,2.7-0.9,4.2-1
				c2.5-0.2,5.4-0.2,8.4-0.1c3.1,0.1,5.8,0.4,8.2,0.8c0-5,0-8.8-0.1-11.2c-0.1-2.5-0.1-4.3-0.2-5.5c-0.1-1.2-0.1-2.1-0.2-2.7
				c0-0.5,0-1.1,0-2c0-0.2,0-0.5,0-0.8c-0.4,0-0.7-0.1-1.1-0.1c-3.6-0.4-7.2-0.4-10.6-0.1c-3.8,0.4-7.6,1.1-11.4,2.1
				c-3,0.7-6,1.8-9.2,3.4c-2.9,1.4-5.4,3-7.4,4.9c-2.1,1.9-3.7,4-5,6.1c-1.3,2.2-2.2,4.4-2.7,6.8c-0.5,2.3-0.7,4.7-0.6,7
				c0.2,2.8,0.9,5.5,2.3,8.1c1.4,2.6,3.1,4.9,5.3,6.8c2.2,2,4.8,3.6,7.7,4.8c2.9,1.2,6.1,1.9,9.5,1.9c0.8,0,1.6,0.1,2.5,0.3
				c0.9,0.1,1.7,0.3,2.5,0.7c0.8,0.3,1.5,0.7,2,1.3c0.6,0.6,0.8,1.3,0.9,2.2c-0.1,1.3-0.5,2.2-1.3,2.9c-0.8,0.7-1.7,1.1-2.9,1.5
				c-1.9,0.4-3.6,0.5-5.3,0.3c-1.7-0.2-3.3-0.5-5-0.7l-5.2-0.7c-1.1-0.2-2.2-0.4-3.3-0.5c-1.1-0.2-2.2-0.3-3.3-0.4l-3.8,24.7
				c3.3,0.5,6,0.8,8.1,1c2.1,0.2,4.1,0.3,6.1,0.3c1.7,0,3.5-0.2,5.6-0.5c2-0.3,4.1-0.7,6.3-1.3c1.2-0.3,2.2-0.5,3.2-0.8
				c1-0.3,1.8-0.5,2.3-0.7c3.7-1.3,7-3,10.1-5.1c3.1-2.1,5.6-4.6,7.7-7.4c1.6-2.1,2.8-4.3,3.8-6.8c0.3-0.8,0.6-1.6,0.9-2.4
				c0-0.1,0-0.1,0.1-0.2c0.3-0.8,0.5-1.7,0.7-2.5c0.1-0.5,0.2-1,0.3-1.5C79,168.8,79.1,166.5,78.9,164.1z"/>
			<path class="st4" d="M70.4,99.5c1.4-0.7,2.9-1.1,4.4-1.1c2.5,0,4.8,0.9,6.6,2.6c0.5,0.4,0.9,1,1.4,1.6c1.3-1,2.5-2.1,3.6-3.3
				c2.1-2.3,3.7-4.8,4.9-7.6c1.2-2.8,1.7-5.7,1.7-8.6c0-1.6-0.2-3.3-0.7-4.9c-0.5-1.6-1.2-3.2-2.2-4.5c-0.9-1.4-2.1-2.7-3.4-3.8
				c-1.3-1.1-2.7-2-4.3-2.6c2.4-2.4,4.2-5.1,5.5-8.1c1.3-3,1.9-5.9,1.9-8.9c0-2.5-0.5-4.9-1.4-7.2c-0.9-2.3-2.3-4.3-4.1-5.9
				c-1-1-2.2-1.8-3.5-2.5c-1.4-0.7-2.8-1.2-4.4-1.6c-1.6-0.4-3.2-0.7-4.9-0.8c-1.6-0.1-3.3,0-4.8,0.2l-32.9,5.4v76.5l31.3-5.2
				c0-0.2,0-0.3,0-0.5C64.8,105,67,101.2,70.4,99.5z M56.5,50.5l4.5-0.7c2-0.3,3.8,0,5.3,1.1c1.5,1.1,2.2,2.6,2.2,4.5
				s-0.7,3.6-2.2,5.2c-1.5,1.6-3.2,2.6-5.3,2.9l-4.5,0.7V50.5z M61.7,93.4l-5.8,1V79l5.8-1c2.3-0.4,4.3,0,5.9,1.3
				c1.6,1.2,2.4,2.9,2.4,5c0,2.1-0.8,4-2.4,5.8C66,91.9,64,93,61.7,93.4z"/>
			<polygon class="st4" points="120.1,80.2 120.1,43.1 120.1,23.4 97.6,27.1 97.6,46.9 97.6,84 97.6,103.7 120.1,100 			"/>
			<path class="st4" d="M222.7,6.9c0.2-0.1,0.5-0.2,0.6-0.4c0.2-0.2,0.3-0.4,0.4-0.6c0.1-0.2,0.2-0.5,0.2-0.8c0-0.6-0.2-1.1-0.7-1.4
				c-0.4-0.3-1-0.5-1.8-0.5h-1.9v6.7h1.1V7.2h0.4c0.1,0,0.1,0,0.1,0l1.9,2.4c0.1,0.1,0.1,0.1,0.2,0.2c0.1,0,0.2,0.1,0.3,0.1h1.1
				L222.5,7C222.6,7,222.6,6.9,222.7,6.9z M222.1,6.1c-0.2,0.1-0.4,0.1-0.6,0.1h-0.7V4.2h0.7c0.5,0,0.8,0.1,1,0.2
				c0.2,0.1,0.3,0.3,0.3,0.7c0,0.2,0,0.3-0.1,0.4c-0.1,0.1-0.1,0.2-0.2,0.3C222.4,5.9,222.2,6,222.1,6.1z"/>
			<path class="st4" d="M221.7,0c-3.6,0-6.6,2.9-6.6,6.6c0,3.6,3,6.6,6.6,6.6c3.6,0,6.6-3,6.6-6.6C228.3,2.9,225.3,0,221.7,0z
				 M221.7,12.1c-3,0-5.5-2.5-5.5-5.5c0-3,2.5-5.5,5.5-5.5s5.5,2.5,5.5,5.5C227.2,9.6,224.7,12.1,221.7,12.1z"/>
		</g>
	</g>
</g>
</svg>
