<?xml version="1.0" encoding="utf-8"?>
<!-- Generator: Adobe Illustrator 27.0.0, SVG Export Plug-In . SVG Version: 6.00 Build 0)  -->
<svg version="1.1" id="Layer_1" xmlns="http://www.w3.org/2000/svg" xmlns:xlink="http://www.w3.org/1999/xlink" x="0px" y="0px"
	 viewBox="0 0 322.4 200" style="enable-background:new 0 0 322.4 200;" xml:space="preserve">
<style type="text/css">
	.st0{fill:#98C766;}
	.st1{fill:#FFFFFF;}
</style>
<g>
	<g>
		<path class="st0" d="M21.8,121.1c1.4,8.5,5.6,12.5,13,13.1c9.6,0.8,16-1.9,17.6-8.8c1.2-5.1,4.1-5.9,8.2-5.9
			c2.1,0,4.2-0.1,6.2-0.1c1.8,13.6-9.8,27.6-23.1,28c-4,0.1-8.1,0.6-12.1,0.2c-12.9-1.3-23.1-13.3-25.9-28.6
			c-1.7-9.7,0.8-18.1,5.7-26.2C18.7,81.1,31.9,76,45.3,79.6c13.2,3.5,22.5,15,23.3,28.4c0.2,3.6-2,4.1-4.5,4.6
			c-11.6,2.4-23.2,4.8-34.8,7.2C27,120.2,24.5,120.6,21.8,121.1z M20.1,107.8c2.3-0.3,4-0.5,5.7-0.8c8.6-1.6,17.2-3.2,25.9-4.8
			c-2.1-6.5-9.2-10.7-15.9-10.4C29.1,91.9,22.8,98,20.1,107.8z"/>
		<path class="st0" d="M88.1,145.1c-5.8,0-10.7,0-16,0c0-11.1-0.2-22,0-33c0.3-16.7,1.3-33.4,1.2-50.1c-0.1-9.6-0.8-9.6,10.2-9.9
			c1.7,0,3.3,0,6,0c0,13.7,0,27.2,0,42.4c8.9-7.7,16.4-14.2,24.1-20.9c4.1,3.6,7.6,6.7,11.7,10.3c-4.3,3.8-7.9,7.4-12,10.5
			c-4,2.9-4.4,5.5-1.9,9.7c6.2,10.5,11.6,21.4,17.7,32c2.1,3.7,1.1,5.5-3,6.8c-3.2,1-6.2,2.3-9.6,3.6c-6.3-12-12.5-23.9-18.9-36.1
			c-6.7,3.4-9.8,6.9-9.4,12.9C88.5,130.4,88.1,137.6,88.1,145.1z"/>
		<path class="st0" d="M235.4,128.1c1.7,4.3,3.2,8.2,4.7,12c-11.5,8.5-26.8,3.7-28.9-10.4c-2-13.2-0.8-26.8-0.9-40.2
			c0-1.7,0.4-3.3,0.7-5.8c-3-0.4-5.8-0.7-8.8-1.1c0.2-5.1,0.4-9.8,0.6-14.8c3.1-0.1,5.8-0.2,8.9-0.3c0.2-4.8,0.3-9.3,0.5-14.4
			c5-0.3,9.5-0.6,14.7-1c0.5,5.7,0.9,10.8,1.3,16.4c2.7,0.6,5.4,1.3,8.1,1.9c-0.2,5-0.4,9.7-0.5,14.6c-3.3,0.1-6,0.2-10.4,0.3
			c0.1,13.1-0.1,26.1,0.5,39C226,129.2,227.4,129.4,235.4,128.1z"/>
		<path class="st0" d="M280.1,140.4c-8.3,3.4-16.2,6.1-25.4,4c-9.6-2.2-17.1-14.8-13.7-24c5.5-15.1,14.2-18.5,30.1-19.2
			c3.8-0.2,7.6,0,11.5,0c-0.4-4.3-6.9-12.4-10.2-13.2c-6.5-1.5-13.2,0.8-15.6,6.2c-1.6,3.7-3.6,4-6.9,2.7c-2.5-1-5.2-1.5-7.8-2.1
			c2.3-12,8.6-18.3,19.7-20.2c15-2.5,27.4,2.9,33.4,16.7c4.4,10.1,2.4,21.1,0.5,31.7c-0.4,2.5-1.2,5-0.4,6.9c2.4,4.5,4.8,9,7.3,13.5
			C293.9,148.5,286.6,147.5,280.1,140.4z M282.2,114.5c-7.6,1-14.7,1.5-21.6,2.9c-4.2,0.9-6.9,6.5-5.5,9.9c2,4.6,6.2,4.3,9.9,3.4
			c3.7-1,7.2-2.9,10.8-4.3C280.5,124.6,282.3,121.2,282.2,114.5z"/>
		<g>
			<g>
				<path class="st0" d="M184.9,121.2c-2.9,9.4-9.4,12.9-21.4,12.2c-5.8-0.3-10.5-3.2-13.3-7.9l8.3-1.1l-5-3l-6.1-3.7
					c0-0.1,0-0.1,0-0.2l-16.2-10.2c0,0.2,0,0.4,0,0.6l-0.1-0.1l0.1,0.1c0,0,0,0,0,0l0,0c0,0,0,0,0,0l-0.1-0.2l-2.2,21.1l5.4-1.3
					c3,8.8,8.7,15.8,20.1,18.3c7.9,1.8,16.7,1.1,24.7-0.3c4.9-0.8,10.6-4,13.7-7.8c5.6-6.9,8.5-14.9,9.2-24.1l-14.5-6
					C186.7,112.4,186.3,117,184.9,121.2z"/>
				<path class="st0" d="M207.7,91.5L200,92c0,0,0,0,0,0c-2.4-6.7-6.9-12.6-13.6-17.2c-4.8-3.3-10.9-6.5-16.4-6.5
					c-6.2,0-12.5,3.3-18.5,5.9c-9.1,4-17.1,9.5-19,20.3c-0.6,3.6-1.2,7.3-1.4,10.9l15.5,6.4c-0.1-1.1-0.3-2.3-0.3-3.4
					c-0.5-18.4,6.4-20.6,22.2-25c5.2-1.4,11.7,3.6,15.3,10.3l-9.4,1.3l5,3l0,0l0.3,0.2l6.8,4c0,0.1,0,0.1,0,0.2l15.4,9.6l0,0l0,0
					l0,0l0.1,0c0-0.1,0-0.2,0-0.3l0,0c0,0,0,0,0,0L207.7,91.5z"/>
			</g>
		</g>
	</g>
	<g>
		<path class="st1" d="M311.1,68.7c0.3-0.1,0.5-0.3,0.7-0.5c0.2-0.2,0.4-0.4,0.5-0.7c0.1-0.3,0.2-0.5,0.2-0.8c0-0.7-0.2-1.2-0.7-1.6
			c-0.4-0.3-1.1-0.5-2-0.5h-2.1V72h1.3v-3h0.5c0.1,0,0.1,0,0.2,0l2.1,2.7c0.1,0.1,0.2,0.2,0.2,0.2c0.1,0.1,0.2,0.1,0.3,0.1h1.2
			l-2.6-3.2C311,68.7,311,68.7,311.1,68.7z M310.4,67.7c-0.2,0.1-0.4,0.1-0.7,0.1h-0.8v-2.1h0.8c0.5,0,0.9,0.1,1.1,0.3
			c0.2,0.2,0.3,0.4,0.3,0.7c0,0.2,0,0.3-0.1,0.5c-0.1,0.1-0.1,0.2-0.3,0.3C310.7,67.6,310.6,67.7,310.4,67.7z"/>
		<path class="st1" d="M310,61c-4,0-7.3,3.3-7.3,7.3c0,4,3.3,7.3,7.3,7.3c4,0,7.3-3.3,7.3-7.3C317.3,64.2,314,61,310,61z M310,74.5
			c-3.4,0-6.2-2.8-6.2-6.2c0-3.4,2.8-6.2,6.2-6.2s6.2,2.8,6.2,6.2C316.2,71.7,313.4,74.5,310,74.5z"/>
	</g>
</g>
</svg>
