<?xml version="1.0" encoding="utf-8"?>
<!-- Generator: Adobe Illustrator 27.0.0, SVG Export Plug-In . SVG Version: 6.00 Build 0)  -->
<svg version="1.1" id="Layer_1" xmlns="http://www.w3.org/2000/svg" xmlns:xlink="http://www.w3.org/1999/xlink" x="0px" y="0px"
	 viewBox="0 0 322.4 200" style="enable-background:new 0 0 322.4 200;" xml:space="preserve">
<style type="text/css">
	.st0{fill:#263D88;}
</style>
<g>
	<g>
		<path class="st0" d="M313.2,126c0.3-0.1,0.5-0.3,0.8-0.5c0.2-0.2,0.4-0.5,0.5-0.7c0.1-0.3,0.2-0.6,0.2-0.9c0-0.7-0.3-1.3-0.8-1.7
			c-0.5-0.4-1.2-0.6-2.1-0.6h-2.2v7.9h1.3v-3.2h0.5c0.1,0,0.1,0,0.2,0l2.3,2.9c0.1,0.1,0.2,0.2,0.2,0.2c0.1,0.1,0.2,0.1,0.3,0.1h1.3
			l-2.7-3.4C313.1,126.1,313.1,126,313.2,126 M312.4,125c-0.2,0.1-0.5,0.1-0.7,0.1h-0.8v-2.3h0.9c0.5,0,0.9,0.1,1.2,0.3
			c0.2,0.2,0.3,0.4,0.3,0.8c0,0.2,0,0.4-0.1,0.5c-0.1,0.1-0.2,0.3-0.3,0.4C312.8,124.9,312.6,124.9,312.4,125"/>
		<path class="st0" d="M312,117.8c-4.3,0-7.8,3.5-7.8,7.8c0,4.3,3.5,7.8,7.8,7.8c4.3,0,7.8-3.5,7.8-7.8
			C319.9,121.3,316.3,117.8,312,117.8 M312,132.2c-3.6,0-6.6-3-6.6-6.6c0-3.6,3-6.6,6.6-6.6c3.6,0,6.6,3,6.6,6.6
			C318.6,129.2,315.7,132.2,312,132.2"/>
	</g>
	<g>
		<path class="st0" d="M176.7,78.5h-0.1v7.1c-1.7-2.1-3.7-3.8-6-5.1c-3.6-1.9-7.8-2.9-12.5-2.9c-5.2,0-9.9,1.1-14.1,3.3
			c-4.2,2.2-7.6,5.4-10.1,9.4c-2.5,4.1-3.8,8.8-3.8,14.3c0,5.4,1.3,10.2,3.8,14.2c2.5,4.1,5.9,7.2,10.1,9.5
			c4.2,2.3,8.9,3.4,14.1,3.4c4.7,0,8.9-1,12.5-2.9c2-1.1,3.7-2.4,5.2-4.1v2.5c0,5.1-1.3,8.9-3.9,11.5c-2.6,2.6-6.8,3.9-12.5,3.9
			c-3.5,0-7.1-0.6-10.8-1.7c-3.6-1.1-6.6-2.7-9-4.6l-6.5,11.7c3.3,2.6,7.3,4.5,12.2,5.8c4.9,1.3,10,1.9,15.3,1.9
			c10.1,0,17.9-2.5,23.3-7.4c5.4-4.9,8.1-12.6,8.1-23V92C187.3,87.1,182.1,82.6,176.7,78.5z M174.1,111.9c-1.2,2.1-3,3.7-5.2,4.8
			c-2.2,1.1-4.8,1.7-7.6,1.7c-2.8,0-5.4-0.6-7.6-1.7c-2.2-1.1-4-2.8-5.3-4.8c-1.3-2.1-1.9-4.5-1.9-7.2c0-2.8,0.6-5.2,1.9-7.2
			c1.3-2,3-3.6,5.3-4.8c2.2-1.1,4.8-1.7,7.6-1.7c2.8,0,5.4,0.6,7.6,1.7c2.2,1.1,4,2.7,5.2,4.8c1.2,2,1.9,4.5,1.9,7.2
			C175.9,107.4,175.3,109.8,174.1,111.9z"/>
		<path class="st0" d="M215.2,51.8C215.2,51.8,215.2,51.8,215.2,51.8c0,5.4-4.4,9.8-9.8,9.8v0c0,0,0,0,0,0c5.4,0,9.8,4.4,9.8,9.8
			c0,0,0,0,0,0c0-5.4,4.4-9.8,9.8-9.8C219.6,61.6,215.2,57.2,215.2,51.8z"/>
		<path class="st0" d="M207.1,111c4.8,7.3,8.8,15.2,12.1,23.5h4.2v-56h-16.2V111z"/>
		<path class="st0" d="M280.9,83.7c-1.4-1.2-2.9-2.1-4.5-3c-4.1-2-9.3-3.1-15.3-3.1c-4.4,0-8.8,0.6-13.1,1.8c-4.3,1.2-8,2.8-11,5
			l5.8,11.3c2-1.6,4.5-2.9,7.3-3.8c2.9-0.9,5.8-1.4,8.8-1.4c2.2,0,4.2,0.3,5.8,0.8c1.6,0.5,2.9,1.2,3.9,2.1c2.1,1.9,3.2,4.7,3.2,8.1
			h-12.9c-1.1,0-2.2,0-3.3,0.1c-4.2,0.2-7.7,0.9-10.6,2c-3.5,1.4-6.1,3.4-7.8,5.9c-1.6,2.5-2.4,5.4-2.4,8.7c0,3.2,0.8,6.1,2.5,8.6
			c0.5,0.8,1.1,1.5,1.7,2.2c1.5,1.6,3.3,2.9,5.5,3.9c3.1,1.5,6.9,2.2,11.2,2.2c4.9,0,9-0.9,12.1-2.8c2.1-1.3,3.8-2.9,5-5v6.9
			c5.4-3.7,10.5-7.9,15.2-12.5v-19.5C288,94,285.6,87.7,280.9,83.7z M271.7,116.8c-1,2.5-2.5,4.4-4.7,5.7c-2.2,1.3-4.6,1.9-7.3,1.9
			c-2.8,0-5.1-0.6-6.7-1.8c-1.6-1.2-2.4-2.9-2.4-4.9c0-1.9,0.7-3.4,2.1-4.7c1.4-1.2,4-1.9,7.9-1.9h11.1V116.8z"/>
		<path class="st0" d="M97.7,116.5l-9.6-23.1c-4.6,2.4-8.9,5.1-13.1,8.1l14.4,33.5l-0.2,0.5c-1.1,2.5-2.3,4.3-3.7,5.4
			c-1.4,1.1-3.2,1.6-5.5,1.6c-1.6,0-3.2-0.3-4.8-0.9c-1.6-0.6-3.1-1.5-4.3-2.6L65,150.4c1.8,1.6,4.1,2.8,7,3.7
			c2.8,0.9,5.7,1.4,8.6,1.4c3.4,0,6.5-0.5,9.3-1.6c2.8-1,5.4-2.8,7.7-5.4c2.3-2.6,4.4-6.1,6.2-10.6l23.8-55.8
			c-5.7,0.5-11.3,1.4-16.7,2.7L97.7,116.5z"/>
		<path class="st0" d="M48.6,80.3c-3.5-1.8-7.5-2.7-11.9-2.7c-3.3,0-6.4,0.5-9.2,1.5c-1.2,0.4-2.4,0.9-3.6,1.6c-1.9,1-3.6,2.2-5,3.7
			v-8V44.5c-5,4.4-10.4,8.4-16.2,11.8v22.7v13.5v5v15.5c6.3,6.4,11.8,13.7,16.2,21.6h0v-25.3v-2.4c0-3.5,0.6-6.3,1.7-8.5
			c0.2-0.3,0.4-0.6,0.5-1c1.1-1.7,2.5-3.1,4.2-4c2-1.1,4.4-1.6,6.9-1.6c1.9,0,3.6,0.3,5,0.9c1.3,0.5,2.4,1.3,3.4,2.3
			c2,2.2,3,5.5,3,10v29.6h2h14.3V115v-12.5c0-5.7-1-10.4-3-14C54.8,84.8,52.1,82.1,48.6,80.3z"/>
	</g>
</g>
</svg>
