<?xml version="1.0" encoding="utf-8"?>
<!-- Generator: Adobe Illustrator 27.0.0, SVG Export Plug-In . SVG Version: 6.00 Build 0)  -->
<svg version="1.1" id="Layer_1" xmlns="http://www.w3.org/2000/svg" xmlns:xlink="http://www.w3.org/1999/xlink" x="0px" y="0px"
	 viewBox="0 0 322.4 200" style="enable-background:new 0 0 322.4 200;" xml:space="preserve">
<style type="text/css">
	.st0{fill:#201E39;}
</style>
<g>
	<g>
		<g>
			<g>
				<path class="st0" d="M170.2,50.7c0-1.3,0.4-2.3,1.3-3.2c0.9-0.9,2-1.3,3.3-1.3c1.2,0,2.3,0.4,3.2,1.3c0.9,0.9,1.3,2,1.3,3.3
					c0,1.2-0.4,2.3-1.3,3.2c-0.9,0.9-1.9,1.3-3.2,1.3c-1.3,0-2.4-0.4-3.3-1.3C170.7,53.1,170.2,52,170.2,50.7z M170.9,60.8h7.8V96
					h-7.8V60.8z"/>
				<path class="st0" d="M195.9,92.9h16.3v3h-26l14.4-32.1h-12.2v-3h15c2.1,0,3.5,0.2,4.2,0.6c0.7,0.4,1,1.1,1,2.2
					c0,0.4,0,0.7-0.1,1.1s-0.2,0.7-0.4,1L195.9,92.9z"/>
				<path class="st0" d="M225.4,92.9h16.3v3h-26L230,63.8h-12.2v-3h15c2.1,0,3.5,0.2,4.2,0.6c0.7,0.4,1,1.1,1,2.2
					c0,0.4,0,0.7-0.1,1.1c-0.1,0.3-0.2,0.7-0.4,1L225.4,92.9z"/>
				<path class="st0" d="M251.3,85.1L248.2,96h-3.5l8.6-30.8c0.5-1.8,1.3-3.1,2.3-4c1.1-0.9,2.4-1.4,3.9-1.4c1.6,0,3,0.5,4.3,1.5
					c1.2,1,2.1,2.5,2.6,4.4l9,30.3h-8l-3.2-10.8H251.3z M252.1,82.1h11.4l-4.2-14.9c-0.3-0.8-0.5-1.4-0.8-1.6
					c-0.2-0.3-0.5-0.4-0.9-0.4c-0.3,0-0.5,0.1-0.7,0.4c-0.2,0.3-0.4,0.8-0.7,1.6L252.1,82.1z"/>
				<path class="st0" d="M290.2,96h-7.8V38.5h7.8v36.7h13.3V60.8h7.8V96h-7.8V78.2h-13.3V96z"/>
			</g>
		</g>
		<g>
			<g>
				<path class="st0" d="M196,123.8c-4.1-3.5-8.8-4.2-13.8-2.6c-2.9,0.9-5.2,2.7-7.1,5c-2.4,3-3.8,6.4-4.2,10.1
					c-0.4,3.5-0.2,7,1.1,10.3c1.4,3.4,3.9,5.8,7.3,7.2c2.3,1,4.8,1.3,7.8,1.3c0.8-0.1,2-0.1,3.3-0.3c0.9-0.1,1.8-0.4,2.6-0.6
					c5-1.4,8-4.8,9.2-9.8c0.8-3.6,0.8-7.2-0.2-10.8C201,129.8,199.1,126.4,196,123.8z M195.9,144.4c-1.1,2.9-3.1,4.6-6.1,5.2
					c-2.4,0.5-4.8,0.4-7.1-0.3c-2.8-0.9-4.5-3-5.2-5.8c-0.4-1.4-0.4-2.9-0.7-4.3c0.1,0,0.1,0,0.2,0c0-3.3,0.6-6.4,2.4-9.2
					c1.7-2.5,3.9-4.2,7-4.3c3.3-0.1,6.1,1.1,7.9,4c1.6,2.5,2.1,5.2,2.3,8.1C196.8,140,196.6,142.2,195.9,144.4z"/>
				<path class="st0" d="M301.4,161.2c-4.6,1.7-9.1,3.4-13.7,5.1c-0.2,0.1-0.5,0.3-0.5,0.5c0,1.1,0,2.3,0,3.5
					c0.8-0.3,1.6-0.6,2.4-0.9c4.4-1.7,8.8-3.3,13.2-5c0.2-0.1,0.5-0.3,0.5-0.4c0-1.1,0-2.2,0-3.4C302.6,160.8,302,161,301.4,161.2z"
					/>
				<path class="st0" d="M219.1,114.1c1.5,0.5,3.1,0.4,4.3-0.9c0.8-0.8,1-1.8,1-2.8c0-1.7-0.4-3.2-2-3.9c-1.5-0.7-3-0.6-4.3,0.4
					c-1.1,0.8-1.3,2-1.4,3.3c0,0.2,0,0.5,0,0.7C217,112.4,217.6,113.6,219.1,114.1z"/>
				<path class="st0" d="M310.8,149.9c0-0.8,0-0.8-0.8-0.8c-3.7,0-7.4,0-11.1,0c-3,0-5.2-1.4-6.7-3.8c-1.2-1.8-1.7-3.8-1.9-5.9
					c-0.3-2.6-0.2-5.2,0.7-7.8c1-3,3-4.9,6.1-5.5c2.5-0.5,5-0.4,7.4,0.3c1.2,0.3,2.3,0.7,3.4,1.1c0.1-0.1,0.1-0.2,0.2-0.3
					c0.5-1.4,1-2.8,1.5-4.2c0.2-0.5,0.1-0.7-0.4-0.9c-2-0.8-4.1-1.3-6.3-1.5c-3.3-0.3-6.6-0.1-9.7,1.1c-1.9,0.8-3.6,1.9-5,3.3
					c-2,2.1-3.2,4.6-3.8,7.5c-0.6,3.5-0.6,6.9,0.5,10.2c0.7,2.3,1.8,4.4,3.6,6c0.1,0.1,0.1,0.2,0.2,0.3c-3.5,0-53.4,0-57,0
					c-2.6,0-5.1,0-7.7,0c0-9.3,0-18.6,0-28c-1.9,0-3.8,0-5.7,0c0,0.3,0,0.5,0,0.8c0,11.2,0,22.5,0,33.7c0,1.2-0.1,2.5-0.3,3.7
					c-0.3,1.8-1,3.4-2.2,4.7c-1.5,1.5-3.5,1.8-5.5,1.5c-1.2-0.2-2.4-0.6-3.7-0.9c-0.5,1.4-1.1,2.9-1.7,4.4c0.1,0.1,0.1,0.1,0.2,0.1
					c2.9,1.5,6,2.2,9.3,1.6c3.6-0.6,6.2-2.6,7.9-5.8c1.3-2.5,1.8-5.2,1.8-8c0-0.8,0-1.6,0-2.5c0.3,0,0.6,0,0.8,0c2.3,0,4.6,0,6.9,0
					c4.5,0,55.4,0,60,0c6.2,0,12.4,0,18.6,0c0.5,0,0.7-0.1,0.6-0.6C310.8,152.5,310.8,151.2,310.8,149.9z"/>
			</g>
		</g>
	</g>
	<g>
		<g>
			<path class="st0" d="M124.1,19.9c0.3-0.1,0.5-0.3,0.7-0.4c0.2-0.2,0.3-0.4,0.4-0.6c0.1-0.2,0.1-0.5,0.1-0.8
				c0-0.6-0.2-1.1-0.7-1.5c-0.4-0.3-1-0.5-1.8-0.5H121v6.8h1.2v-2.8h0.4c0.1,0,0.1,0,0.1,0l2,2.5c0.1,0.1,0.1,0.1,0.2,0.2
				c0.1,0,0.2,0.1,0.3,0.1h1.1l-2.4-3C124,19.9,124.1,19.9,124.1,19.9 M123.5,19c-0.2,0.1-0.4,0.1-0.6,0.1h-0.7v-2h0.8
				c0.5,0,0.8,0.1,1,0.2c0.2,0.1,0.3,0.4,0.3,0.7c0,0.2,0,0.3-0.1,0.4c-0.1,0.1-0.1,0.2-0.2,0.3C123.8,18.9,123.6,19,123.5,19"/>
			<path class="st0" d="M123.1,12.8c-3.7,0-6.8,3-6.8,6.8c0,3.7,3,6.8,6.8,6.8s6.8-3,6.8-6.8C129.9,15.8,126.8,12.8,123.1,12.8
				 M123.1,25.2c-3.1,0-5.7-2.6-5.7-5.7s2.6-5.7,5.7-5.7s5.7,2.5,5.7,5.7S126.2,25.2,123.1,25.2"/>
		</g>
	</g>
	<path class="st0" d="M60.6,21.5c-27.3,0-49.4,37.1-49.4,82.8c0,45.8,22.1,82.8,49.4,82.8s49.4-37.1,49.4-82.8
		C110,58.6,87.9,21.5,60.6,21.5z M67,145.4H54.1V87.5H67V145.4z M65.9,76.2c-1.4,1.5-3.2,2.2-5.3,2.2c-2.1,0-3.9-0.7-5.4-2.2
		c-1.5-1.5-2.2-3.2-2.2-5.3c0-2.1,0.7-3.9,2.2-5.3c1.5-1.5,3.3-2.2,5.4-2.2c2,0,3.8,0.7,5.2,2.2c1.5,1.4,2.2,3.2,2.2,5.4
		C68.1,73,67.3,74.7,65.9,76.2z"/>
</g>
</svg>
